<mxfile host="app.diagrams.net" agent="Mozilla/5.0 (Windows NT 10.0; Win64; x64) AppleWebKit/537.36 (KHTML, like Gecko) Chrome/138.0.0.0 Safari/537.36" version="28.0.7">
  <diagram name="Page-1" id="f4xzLzmdH_kpV5stwgwc">
    <mxGraphModel dx="983" dy="564" grid="1" gridSize="10" guides="1" tooltips="1" connect="1" arrows="1" fold="1" page="1" pageScale="1" pageWidth="850" pageHeight="1100" background="none" math="0" shadow="0">
      <root>
        <mxCell id="0" />
        <mxCell id="1" parent="0" />
        <mxCell id="jOB4G5-LW0D7v6I_bXfW-12" value="" style="edgeStyle=orthogonalEdgeStyle;rounded=0;orthogonalLoop=1;jettySize=auto;html=1;" edge="1" parent="1" source="jOB4G5-LW0D7v6I_bXfW-1" target="jOB4G5-LW0D7v6I_bXfW-3">
          <mxGeometry relative="1" as="geometry" />
        </mxCell>
        <mxCell id="jOB4G5-LW0D7v6I_bXfW-1" value="Plan" style="ellipse;whiteSpace=wrap;html=1;gradientColor=light-dark(#000000,#E0A1FF);fontStyle=1;fontFamily=Times New Roman;fontSize=17;" vertex="1" parent="1">
          <mxGeometry x="340" width="120" height="80" as="geometry" />
        </mxCell>
        <mxCell id="jOB4G5-LW0D7v6I_bXfW-3" value="Develop" style="ellipse;whiteSpace=wrap;html=1;fillColor=#dae8fc;strokeColor=#6c8ebf;gradientColor=light-dark(#000000,#E0A1FF);fontFamily=Times New Roman;labelBorderColor=none;labelBackgroundColor=none;textShadow=0;convertToSvg=0;fontSize=17;fontStyle=1" vertex="1" parent="1">
          <mxGeometry x="340" y="130" width="120" height="80" as="geometry" />
        </mxCell>
        <mxCell id="jOB4G5-LW0D7v6I_bXfW-15" value="" style="edgeStyle=orthogonalEdgeStyle;rounded=0;orthogonalLoop=1;jettySize=auto;html=1;" edge="1" parent="1" source="jOB4G5-LW0D7v6I_bXfW-5" target="jOB4G5-LW0D7v6I_bXfW-6">
          <mxGeometry relative="1" as="geometry" />
        </mxCell>
        <mxCell id="jOB4G5-LW0D7v6I_bXfW-5" value="Test" style="ellipse;whiteSpace=wrap;html=1;gradientColor=light-dark(#000000,#E0A1FF);fontFamily=Times New Roman;fontStyle=1;fontSize=17;" vertex="1" parent="1">
          <mxGeometry x="340" y="380" width="120" height="80" as="geometry" />
        </mxCell>
        <mxCell id="jOB4G5-LW0D7v6I_bXfW-6" value="Release" style="ellipse;whiteSpace=wrap;html=1;gradientColor=light-dark(#000000,#E0A1FF);fontFamily=Times New Roman;fontSize=17;fontStyle=1" vertex="1" parent="1">
          <mxGeometry x="340" y="510" width="120" height="80" as="geometry" />
        </mxCell>
        <mxCell id="jOB4G5-LW0D7v6I_bXfW-9" value="" style="endArrow=classic;html=1;rounded=0;entryX=0.5;entryY=0;entryDx=0;entryDy=0;exitX=0.5;exitY=1;exitDx=0;exitDy=0;" edge="1" parent="1" target="jOB4G5-LW0D7v6I_bXfW-5">
          <mxGeometry width="50" height="50" relative="1" as="geometry">
            <mxPoint x="400" y="330" as="sourcePoint" />
            <mxPoint x="400" y="370" as="targetPoint" />
          </mxGeometry>
        </mxCell>
        <mxCell id="jOB4G5-LW0D7v6I_bXfW-11" value="" style="endArrow=classic;html=1;rounded=0;exitX=0.5;exitY=1;exitDx=0;exitDy=0;" edge="1" parent="1">
          <mxGeometry width="50" height="50" relative="1" as="geometry">
            <mxPoint x="399.29" y="210" as="sourcePoint" />
            <mxPoint x="399" y="250" as="targetPoint" />
          </mxGeometry>
        </mxCell>
        <mxCell id="jOB4G5-LW0D7v6I_bXfW-14" value="Build" style="ellipse;whiteSpace=wrap;html=1;gradientColor=light-dark(#000000,#E0A1FF);fontFamily=Times New Roman;fontStyle=1;fontSize=17;" vertex="1" parent="1">
          <mxGeometry x="340" y="250" width="120" height="80" as="geometry" />
        </mxCell>
        <mxCell id="jOB4G5-LW0D7v6I_bXfW-16" style="edgeStyle=orthogonalEdgeStyle;rounded=0;orthogonalLoop=1;jettySize=auto;html=1;exitX=0.5;exitY=1;exitDx=0;exitDy=0;" edge="1" parent="1" source="jOB4G5-LW0D7v6I_bXfW-1" target="jOB4G5-LW0D7v6I_bXfW-1">
          <mxGeometry relative="1" as="geometry" />
        </mxCell>
      </root>
    </mxGraphModel>
  </diagram>
</mxfile>
